<mxfile host="app.diagrams.net" agent="Mozilla/5.0 (Windows NT 10.0; Win64; x64; rv:134.0) Gecko/20100101 Firefox/134.0" version="26.0.6">
  <diagram id="6a731a19-8d31-9384-78a2-239565b7b9f0" name="Page-1">
    <mxGraphModel dx="1506" dy="812" grid="1" gridSize="10" guides="1" tooltips="1" connect="1" arrows="1" fold="1" page="1" pageScale="1" pageWidth="1169" pageHeight="827" background="none" math="0" shadow="0">
      <root>
        <mxCell id="0" />
        <mxCell id="1" parent="0" />
        <mxCell id="cNiK-8ckhrLXa3-nI2Zt-66" style="edgeStyle=orthogonalEdgeStyle;rounded=0;orthogonalLoop=1;jettySize=auto;html=1;entryX=0.5;entryY=1;entryDx=0;entryDy=0;" parent="1" source="cNiK-8ckhrLXa3-nI2Zt-7" target="cNiK-8ckhrLXa3-nI2Zt-12" edge="1">
          <mxGeometry relative="1" as="geometry">
            <Array as="points">
              <mxPoint x="415" y="450" />
              <mxPoint x="190" y="450" />
            </Array>
          </mxGeometry>
        </mxCell>
        <mxCell id="cNiK-8ckhrLXa3-nI2Zt-72" style="edgeStyle=orthogonalEdgeStyle;rounded=0;orthogonalLoop=1;jettySize=auto;html=1;" parent="1" edge="1">
          <mxGeometry relative="1" as="geometry">
            <mxPoint x="475" y="375" as="sourcePoint" />
            <mxPoint x="560" y="375" as="targetPoint" />
          </mxGeometry>
        </mxCell>
        <mxCell id="cNiK-8ckhrLXa3-nI2Zt-7" value="Sistem SSO" style="ellipse;whiteSpace=wrap;html=1;aspect=fixed;fontSize=14;" parent="1" vertex="1">
          <mxGeometry x="355" y="310" width="120" height="120" as="geometry" />
        </mxCell>
        <mxCell id="cNiK-8ckhrLXa3-nI2Zt-65" style="edgeStyle=orthogonalEdgeStyle;rounded=0;orthogonalLoop=1;jettySize=auto;html=1;entryX=0.5;entryY=0;entryDx=0;entryDy=0;" parent="1" source="cNiK-8ckhrLXa3-nI2Zt-12" target="cNiK-8ckhrLXa3-nI2Zt-7" edge="1">
          <mxGeometry relative="1" as="geometry">
            <Array as="points">
              <mxPoint x="190" y="290" />
              <mxPoint x="415" y="290" />
            </Array>
          </mxGeometry>
        </mxCell>
        <mxCell id="cNiK-8ckhrLXa3-nI2Zt-12" value="User/Pengguna" style="rounded=0;whiteSpace=wrap;html=1;fontSize=14;" parent="1" vertex="1">
          <mxGeometry x="130" y="340" width="120" height="50" as="geometry" />
        </mxCell>
        <mxCell id="cNiK-8ckhrLXa3-nI2Zt-18" value="Data Registrasi&lt;br&gt;Data Login" style="text;html=1;align=center;verticalAlign=middle;whiteSpace=wrap;rounded=0;fontSize=12;" parent="1" vertex="1">
          <mxGeometry x="252" y="274" width="100" height="30" as="geometry" />
        </mxCell>
        <mxCell id="cNiK-8ckhrLXa3-nI2Zt-33" value="" style="rounded=0;whiteSpace=wrap;html=1;fillColor=none;" parent="1" vertex="1">
          <mxGeometry x="780" y="80" width="660" height="490" as="geometry" />
        </mxCell>
        <mxCell id="cNiK-8ckhrLXa3-nI2Zt-35" value="" style="shape=cylinder3;whiteSpace=wrap;html=1;boundedLbl=1;backgroundOutline=1;size=15;" parent="1" vertex="1">
          <mxGeometry x="1065" y="140" width="60" height="80" as="geometry" />
        </mxCell>
        <mxCell id="cNiK-8ckhrLXa3-nI2Zt-36" value="&lt;div style=&quot;font-size: 12px;&quot;&gt;Database Master Data User&lt;/div&gt;" style="text;html=1;align=left;verticalAlign=middle;whiteSpace=wrap;rounded=0;fontSize=12;" parent="1" vertex="1">
          <mxGeometry x="1130" y="160" width="100" height="30" as="geometry" />
        </mxCell>
        <mxCell id="cNiK-8ckhrLXa3-nI2Zt-37" style="edgeStyle=none;curved=1;rounded=0;orthogonalLoop=1;jettySize=auto;html=1;fontSize=12;startSize=8;endSize=8;endArrow=none;endFill=0;startArrow=classic;startFill=1;" parent="1" edge="1">
          <mxGeometry relative="1" as="geometry">
            <mxPoint x="1089.38" y="220" as="targetPoint" />
            <mxPoint x="1089.38" y="310" as="sourcePoint" />
          </mxGeometry>
        </mxCell>
        <mxCell id="cNiK-8ckhrLXa3-nI2Zt-38" style="edgeStyle=none;curved=1;rounded=0;orthogonalLoop=1;jettySize=auto;html=1;fontSize=12;startSize=8;endSize=8;" parent="1" source="cNiK-8ckhrLXa3-nI2Zt-39" target="cNiK-8ckhrLXa3-nI2Zt-93" edge="1">
          <mxGeometry relative="1" as="geometry">
            <mxPoint x="1095" y="521" as="targetPoint" />
          </mxGeometry>
        </mxCell>
        <mxCell id="cNiK-8ckhrLXa3-nI2Zt-87" style="edgeStyle=orthogonalEdgeStyle;rounded=0;orthogonalLoop=1;jettySize=auto;html=1;endArrow=classic;endFill=1;" parent="1" edge="1">
          <mxGeometry relative="1" as="geometry">
            <mxPoint x="1155" y="362" as="sourcePoint" />
            <mxPoint x="1280" y="362" as="targetPoint" />
          </mxGeometry>
        </mxCell>
        <mxCell id="cNiK-8ckhrLXa3-nI2Zt-39" value="&lt;div style=&quot;font-size: 14px;&quot;&gt;2.0&lt;/div&gt;&lt;div style=&quot;font-size: 14px;&quot;&gt;Login&lt;/div&gt;&lt;div style=&quot;font-size: 14px;&quot;&gt;User&lt;br style=&quot;font-size: 14px;&quot;&gt;&lt;/div&gt;" style="ellipse;whiteSpace=wrap;html=1;aspect=fixed;fontSize=14;" parent="1" vertex="1">
          <mxGeometry x="1035" y="310" width="120" height="120" as="geometry" />
        </mxCell>
        <mxCell id="cNiK-8ckhrLXa3-nI2Zt-41" value="&lt;div style=&quot;font-size: 12px;&quot;&gt;data user&lt;br style=&quot;font-size: 12px;&quot;&gt;&lt;/div&gt;" style="text;html=1;align=right;verticalAlign=middle;whiteSpace=wrap;rounded=0;fontSize=12;" parent="1" vertex="1">
          <mxGeometry x="1090" y="248" width="60" height="30" as="geometry" />
        </mxCell>
        <mxCell id="cNiK-8ckhrLXa3-nI2Zt-42" style="edgeStyle=none;curved=1;rounded=0;orthogonalLoop=1;jettySize=auto;html=1;entryX=0;entryY=0.5;entryDx=0;entryDy=0;fontSize=12;startSize=8;endSize=8;" parent="1" source="cNiK-8ckhrLXa3-nI2Zt-44" target="cNiK-8ckhrLXa3-nI2Zt-39" edge="1">
          <mxGeometry relative="1" as="geometry" />
        </mxCell>
        <mxCell id="cNiK-8ckhrLXa3-nI2Zt-78" style="edgeStyle=orthogonalEdgeStyle;rounded=0;orthogonalLoop=1;jettySize=auto;html=1;entryX=0.572;entryY=1.017;entryDx=0;entryDy=0;entryPerimeter=0;" parent="1" edge="1">
          <mxGeometry relative="1" as="geometry">
            <mxPoint x="874.5" y="345" as="sourcePoint" />
            <mxPoint x="874.4959999999999" y="250.00599999999997" as="targetPoint" />
            <Array as="points" />
          </mxGeometry>
        </mxCell>
        <mxCell id="cNiK-8ckhrLXa3-nI2Zt-44" value="Pengguna" style="rounded=0;whiteSpace=wrap;html=1;fontSize=14;" parent="1" vertex="1">
          <mxGeometry x="814" y="345" width="120" height="50" as="geometry" />
        </mxCell>
        <mxCell id="cNiK-8ckhrLXa3-nI2Zt-50" value="data registrasi" style="text;html=1;align=center;verticalAlign=middle;whiteSpace=wrap;rounded=0;fontSize=12;" parent="1" vertex="1">
          <mxGeometry x="870" y="274" width="100" height="30" as="geometry" />
        </mxCell>
        <mxCell id="cNiK-8ckhrLXa3-nI2Zt-51" value="info login" style="text;html=1;align=center;verticalAlign=middle;whiteSpace=wrap;rounded=0;fontSize=12;" parent="1" vertex="1">
          <mxGeometry x="1074" y="442" width="100" height="30" as="geometry" />
        </mxCell>
        <mxCell id="cNiK-8ckhrLXa3-nI2Zt-56" style="edgeStyle=none;curved=1;rounded=0;orthogonalLoop=1;jettySize=auto;html=1;exitX=0.5;exitY=1;exitDx=0;exitDy=0;fontSize=12;startSize=8;endSize=8;" parent="1" source="cNiK-8ckhrLXa3-nI2Zt-51" target="cNiK-8ckhrLXa3-nI2Zt-51" edge="1">
          <mxGeometry relative="1" as="geometry" />
        </mxCell>
        <mxCell id="cNiK-8ckhrLXa3-nI2Zt-91" style="edgeStyle=orthogonalEdgeStyle;rounded=0;orthogonalLoop=1;jettySize=auto;html=1;" parent="1" edge="1">
          <mxGeometry relative="1" as="geometry">
            <mxPoint x="1280" y="377" as="sourcePoint" />
            <mxPoint x="1155" y="377" as="targetPoint" />
          </mxGeometry>
        </mxCell>
        <mxCell id="cNiK-8ckhrLXa3-nI2Zt-61" value="Aplikasi Eksternal" style="rounded=0;whiteSpace=wrap;html=1;fontSize=14;" parent="1" vertex="1">
          <mxGeometry x="1280" y="345" width="137" height="50" as="geometry" />
        </mxCell>
        <mxCell id="cNiK-8ckhrLXa3-nI2Zt-64" style="edgeStyle=none;curved=1;rounded=0;orthogonalLoop=1;jettySize=auto;html=1;exitX=0.5;exitY=1;exitDx=0;exitDy=0;fontSize=12;startSize=8;endSize=8;" parent="1" edge="1">
          <mxGeometry relative="1" as="geometry">
            <mxPoint x="1160" y="274" as="sourcePoint" />
            <mxPoint x="1160" y="274" as="targetPoint" />
          </mxGeometry>
        </mxCell>
        <mxCell id="cNiK-8ckhrLXa3-nI2Zt-67" value="&lt;div&gt;Informasi Registrasi&lt;/div&gt;&lt;div&gt;Informasi Login&lt;br&gt;&lt;/div&gt;" style="text;html=1;align=center;verticalAlign=middle;whiteSpace=wrap;rounded=0;fontSize=12;" parent="1" vertex="1">
          <mxGeometry x="234" y="434" width="140" height="30" as="geometry" />
        </mxCell>
        <mxCell id="cNiK-8ckhrLXa3-nI2Zt-73" style="edgeStyle=orthogonalEdgeStyle;rounded=0;orthogonalLoop=1;jettySize=auto;html=1;entryX=1;entryY=0.5;entryDx=0;entryDy=0;" parent="1" edge="1">
          <mxGeometry relative="1" as="geometry">
            <mxPoint x="560" y="359" as="sourcePoint" />
            <mxPoint x="474.9999999999998" y="359" as="targetPoint" />
          </mxGeometry>
        </mxCell>
        <mxCell id="cNiK-8ckhrLXa3-nI2Zt-70" value="&lt;div&gt;Developer/&lt;/div&gt;&lt;div&gt;Aplikasi Eksternal&lt;/div&gt;" style="rounded=0;whiteSpace=wrap;html=1;fontSize=14;" parent="1" vertex="1">
          <mxGeometry x="560" y="341" width="140" height="50" as="geometry" />
        </mxCell>
        <mxCell id="cNiK-8ckhrLXa3-nI2Zt-74" value="Data User &amp;amp; token" style="text;html=1;align=center;verticalAlign=middle;whiteSpace=wrap;rounded=0;fontSize=12;" parent="1" vertex="1">
          <mxGeometry x="476" y="377" width="80" height="30" as="geometry" />
        </mxCell>
        <mxCell id="cNiK-8ckhrLXa3-nI2Zt-75" value="Cookie" style="text;html=1;align=center;verticalAlign=middle;whiteSpace=wrap;rounded=0;fontSize=12;" parent="1" vertex="1">
          <mxGeometry x="480" y="330" width="80" height="30" as="geometry" />
        </mxCell>
        <mxCell id="cNiK-8ckhrLXa3-nI2Zt-77" value="&lt;div style=&quot;font-size: 14px;&quot;&gt;1.0&lt;/div&gt;&lt;div style=&quot;font-size: 14px;&quot;&gt;Registrasi&lt;br style=&quot;font-size: 14px;&quot;&gt;&lt;/div&gt;&lt;div&gt;User&lt;br&gt;&lt;/div&gt;" style="ellipse;whiteSpace=wrap;html=1;aspect=fixed;fontSize=14;" parent="1" vertex="1">
          <mxGeometry x="820" y="130" width="118" height="118" as="geometry" />
        </mxCell>
        <mxCell id="cNiK-8ckhrLXa3-nI2Zt-82" style="edgeStyle=orthogonalEdgeStyle;rounded=0;orthogonalLoop=1;jettySize=auto;html=1;startArrow=classic;startFill=1;endArrow=none;endFill=0;" parent="1" source="cNiK-8ckhrLXa3-nI2Zt-35" edge="1">
          <mxGeometry relative="1" as="geometry">
            <mxPoint x="940" y="180" as="targetPoint" />
          </mxGeometry>
        </mxCell>
        <mxCell id="cNiK-8ckhrLXa3-nI2Zt-84" value="&lt;div align=&quot;center&quot;&gt;nama user, pass, nip, nik&lt;br&gt;&lt;/div&gt;" style="text;html=1;align=center;verticalAlign=middle;whiteSpace=wrap;rounded=0;fontSize=12;" parent="1" vertex="1">
          <mxGeometry x="950" y="144" width="100" height="30" as="geometry" />
        </mxCell>
        <mxCell id="cNiK-8ckhrLXa3-nI2Zt-86" value="nik/nip, pass" style="text;html=1;align=center;verticalAlign=middle;whiteSpace=wrap;rounded=0;fontSize=12;" parent="1" vertex="1">
          <mxGeometry x="938" y="342" width="100" height="30" as="geometry" />
        </mxCell>
        <mxCell id="cNiK-8ckhrLXa3-nI2Zt-88" value="&lt;div align=&quot;center&quot; style=&quot;font-size: 12px;&quot;&gt;data user, token&lt;br&gt;&lt;/div&gt;" style="text;html=1;align=center;verticalAlign=middle;whiteSpace=wrap;rounded=0;fontSize=12;" parent="1" vertex="1">
          <mxGeometry x="1160" y="337" width="110" height="30" as="geometry" />
        </mxCell>
        <mxCell id="cNiK-8ckhrLXa3-nI2Zt-92" value="cookie browser" style="text;html=1;align=center;verticalAlign=middle;whiteSpace=wrap;rounded=0;fontSize=12;" parent="1" vertex="1">
          <mxGeometry x="1160" y="377" width="110" height="30" as="geometry" />
        </mxCell>
        <mxCell id="cNiK-8ckhrLXa3-nI2Zt-93" value="Tabel Log" style="shape=process;whiteSpace=wrap;html=1;backgroundOutline=1;" parent="1" vertex="1">
          <mxGeometry x="1034" y="489" width="120" height="30" as="geometry" />
        </mxCell>
        <mxCell id="cNiK-8ckhrLXa3-nI2Zt-94" value="" style="rounded=0;whiteSpace=wrap;html=1;fillColor=none;" parent="1" vertex="1">
          <mxGeometry x="110" y="600" width="620" height="350" as="geometry" />
        </mxCell>
      </root>
    </mxGraphModel>
  </diagram>
</mxfile>
